<svg xmlns="http://www.w3.org/2000/svg" width="700" height="110" viewBox="0 0 700 110">
<defs>
 <linearGradient id="bg" x1="0" y1="0" x2="1" y2="1"><stop stop-color="#061b36"/><stop offset=".48" stop-color="#06142f"/><stop offset="1" stop-color="#0a1840"/></linearGradient>
 <linearGradient id="gold" x1="0" y1="0" x2="1" y2="1"><stop stop-color="#8f4d11"/><stop offset=".18" stop-color="#ffe5a0"/><stop offset=".43" stop-color="#d88920"/><stop offset=".7" stop-color="#fff0b8"/><stop offset="1" stop-color="#8b4710"/></linearGradient>
 <radialGradient id="blue"><stop stop-color="#9eeeff"/><stop offset=".25" stop-color="#1bd3ff"/><stop offset=".65" stop-color="#0560c9"/><stop offset="1" stop-color="#031a50"/></radialGradient>
 <radialGradient id="vio"><stop stop-color="#ffd7ff"/><stop offset=".22" stop-color="#dd5cff"/><stop offset=".68" stop-color="#6b16c9"/><stop offset="1" stop-color="#22044c"/></radialGradient>
 <filter id="glow"><feGaussianBlur stdDeviation="4" result="b"/><feMerge><feMergeNode in="b"/><feMergeNode in="SourceGraphic"/></feMerge></filter>
</defs>
<rect x="2" y="2" width="696" height="106" rx="20" fill="url(#bg)" stroke="url(#gold)" stroke-width="4"/>
<rect x="6" y="6" width="688" height="98" rx="14" fill="none" stroke="#47bfff" stroke-opacity=".22" stroke-width="1.5"/>
<path d="M 119.0 7 H 581.0" stroke="#fff1bd" stroke-opacity=".30"/>
<path d="M 84.0 103 H 616.0" stroke="#43a6ff" stroke-opacity=".22"/>
<!-- center crest -->
<g transform="translate(350.0,3)" filter="url(#glow)"><rect x="-5.0" y="-5.0" width="10" height="10" transform="rotate(45)" fill="url(#blue)" stroke="#ffd879" stroke-width="2"/></g>
<!-- corner jewels -->
<g filter="url(#glow)">
 <ellipse cx="7.199999999999999" cy="7.199999999999999" rx="5.0" ry="3.4000000000000004" transform="rotate(-45 7.199999999999999 7.199999999999999)" fill="url(#blue)" stroke="#ffc75a" stroke-width="1.5"/>
 <ellipse cx="692.8" cy="7.199999999999999" rx="5.0" ry="3.4000000000000004" transform="rotate(45 692.8 7.199999999999999)" fill="url(#blue)" stroke="#ffc75a" stroke-width="1.5"/>
 <ellipse cx="7.199999999999999" cy="102.8" rx="5.0" ry="3.4000000000000004" transform="rotate(45 7.199999999999999 102.8)" fill="url(#vio)" stroke="#ffc75a" stroke-width="1.5"/>
 <ellipse cx="692.8" cy="102.8" rx="5.0" ry="3.4000000000000004" transform="rotate(-45 692.8 102.8)" fill="url(#vio)" stroke="#ffc75a" stroke-width="1.5"/>
</g>
</svg>